# xmcd CD database file
#
# Track frame offsets:
#	150
#	11991
#	25156
#	38627
#	50795
#	63333
#	78079
#	90658
#	104080
#	116395
#
# Disc length: 1701 seconds
#
# Revision: 0
# Processed by: cddbd v1.5.2PL0 Copyright (c) Steve Scherf et al.
# Submitted via: CDex 1.51
#
DISCID=7b06a30a
DTITLE=B.B. KING - Easy Listening Blues
DYEAR=1962
DGENRE=Blues
TTITLE0=Easy Listening Blues Aka Easy Listening
TTITLE1=Blues For Me
TTITLE2=Night Long
TTITLE3=Confessin'
TTITLE4=Don't Touch
TTITLE5=Slow Walk Aka Slow Burn
TTITLE6=Walking'
TTITLE7=Hully Gully aka Hully Gully Twist
TTITLE8=Shoutin' The Blues
TTITLE9=Rambler
EXTD=YEAR: 1962
EXTT0=
EXTT1=
EXTT2=
EXTT3=
EXTT4=
EXTT5=
EXTT6=
EXTT7=
EXTT8=
EXTT9=
PLAYORDER=
